<?xml version="1.0" encoding="UTF-8" standalone="no"?>
<svg
   xmlns:dc="http://purl.org/dc/elements/1.1/"
   xmlns:cc="http://creativecommons.org/ns#"
   xmlns:rdf="http://www.w3.org/1999/02/22-rdf-syntax-ns#"
   xmlns:svg="http://www.w3.org/2000/svg"
   xmlns="http://www.w3.org/2000/svg"
   version="1.1"
   id="svg2"
   xml:space="preserve"
   width="264.72"
   height="75.519997"
   viewBox="0 0 264.72 75.519997"><metadata
     id="metadata8"><rdf:RDF><cc:Work
         rdf:about=""><dc:format>image/svg+xml</dc:format><dc:type
           rdf:resource="http://purl.org/dc/dcmitype/StillImage" /><dc:title></dc:title></cc:Work></rdf:RDF></metadata><defs
     id="defs6" /><g
     id="g10"
     transform="matrix(1.3333333,0,0,-1.3333333,0,75.52)"><g
       id="g12"
       transform="scale(0.1)"><path
         d="m 1165.03,315.746 c -10.8,-11.406 -24.2,-16.203 -39.2,-16.203 -14.8,0 -27.59,5.398 -37.4,15.203 -14.01,14.004 -13.82,29.805 -13.82,57.211 0,27.406 -0.19,43.211 13.82,57.215 9.81,9.797 22.2,15.203 37.4,15.203 30.21,0 47.82,-19.805 51.82,-44.215 h -21.82 c -3.59,15.606 -14.01,24.813 -30,24.813 -8.39,0 -16,-3.407 -21,-8.805 -7,-7.605 -8.6,-15.605 -8.6,-44.211 0,-28.605 1.6,-36.805 8.6,-44.406 5,-5.403 12.61,-8.606 21,-8.606 9.4,0 17.59,3.606 23.21,10.004 5.19,6 7.21,13.203 7.21,22.403 v 8.003 h -30.42 v 18.403 h 52.01 v -21.805 c 0,-18.402 -3.39,-30.207 -12.81,-40.207"
         style="fill:#f36227;fill-opacity:1;fill-rule:nonzero;stroke:none"
         id="path14" /><path
         d="m 1209.61,300.742 v 142.434 h 91.02 V 423.77 h -69.4 v -41.614 h 59.21 v -19.203 h -59.21 v -42.805 h 69.4 v -19.406 h -91.02"
         style="fill:#f36227;fill-opacity:1;fill-rule:nonzero;stroke:none"
         id="path16" /><path
         d="m 1368.03,299.543 c -21.4,0 -36.8,5 -50.41,18.801 l 14.41,14.207 c 10.41,-10.403 21.79,-13.606 36.39,-13.606 18.62,0 29.42,8.004 29.42,21.809 0,6.199 -1.81,11.398 -5.6,14.797 -3.62,3.402 -7.21,4.804 -15.61,6.008 l -16.8,2.394 c -11.59,1.606 -20.81,5.602 -27,11.402 -7.01,6.602 -10.42,15.606 -10.42,27.208 0,24.804 18.01,41.812 47.62,41.812 18.8,0 32.01,-4.805 44.2,-16.207 l -13.79,-13.602 c -8.81,8.403 -19,11.004 -31.02,11.004 -16.8,0 -26,-9.601 -26,-22.207 0,-5.199 1.61,-9.804 5.4,-13.203 3.62,-3.195 9.42,-5.597 16.01,-6.601 l 16.2,-2.403 c 13.2,-1.996 20.6,-5.199 26.62,-10.597 7.79,-6.805 11.59,-17.004 11.59,-29.207 0,-26.204 -21.4,-41.809 -51.21,-41.809"
         style="fill:#f36227;fill-opacity:1;fill-rule:nonzero;stroke:none"
         id="path18" /><path
         d="m 1497.03,299.543 c -29.01,0 -51,19.805 -51,49.211 v 94.422 h 21.59 V 349.75 c 0,-19.004 11.61,-30.805 29.41,-30.805 17.8,0 29.6,11.801 29.6,30.805 v 93.426 h 21.61 v -94.422 c 0,-29.406 -22.21,-49.211 -51.21,-49.211"
         style="fill:#f36227;fill-opacity:1;fill-rule:nonzero;stroke:none"
         id="path20" /><path
         d="m 1670.63,300.742 -65.81,100.219 V 300.742 h -21.61 v 142.434 h 19.81 l 65.81,-100.028 v 100.028 h 21.61 V 300.742 h -19.81"
         style="fill:#f36227;fill-opacity:1;fill-rule:nonzero;stroke:none"
         id="path22" /><path
         d="m 1799.61,414.164 c -5.99,6.602 -13.98,9.606 -24.19,9.606 H 1749.2 V 320.148 h 26.22 c 10.21,0 18.2,3 24.19,9.598 7.42,8.203 7.63,23.609 7.63,43.215 0,19.602 -0.21,33.008 -7.63,41.203 z m 14.81,-100.019 c -9,-9.004 -21.98,-13.403 -36.8,-13.403 h -50.01 v 142.434 h 50.01 c 14.82,0 27.8,-4.406 36.8,-13.406 15.41,-15.407 14.41,-36.211 14.41,-56.809 0,-20.606 1,-43.414 -14.41,-58.816"
         style="fill:#f36227;fill-opacity:1;fill-rule:nonzero;stroke:none"
         id="path24" /><path
         d="m 1135.44,173.551 h -34.03 v -43.41 h 34.03 c 15,0 23.39,9.207 23.39,21.808 0,12.602 -8.39,21.602 -23.39,21.602 z m -2.01,60.219 h -32.02 v -40.809 h 32.02 c 13.81,0 23.2,7.199 23.2,20.402 0,13.203 -9.39,20.407 -23.2,20.407 z m 4.01,-123.032 h -57.62 v 142.438 h 55.41 c 26.4,0 43.01,-15.008 43.01,-39.012 0,-15.402 -9.59,-26.41 -19.2,-30.211 11,-4.402 21.4,-15.004 21.4,-33.008 0,-26.203 -17.79,-40.207 -43,-40.207"
         style="fill:#f36227;fill-opacity:1;fill-rule:nonzero;stroke:none"
         id="path26" /><path
         d="m 1212.41,110.738 v 142.438 h 91.01 V 233.77 h -69.4 v -41.614 h 59.22 v -19.207 h -59.22 v -42.808 h 69.4 v -19.403 h -91.01"
         style="fill:#f36227;fill-opacity:1;fill-rule:nonzero;stroke:none"
         id="path28" /><path
         d="m 1449.24,110.738 h -18.8 l -29,99.825 -28.82,-99.825 h -18.8 l -37.2,142.438 h 22.8 l 24.81,-101.828 28.61,101.828 h 17.4 l 28.59,-101.828 24.82,101.828 h 22.8 l -37.21,-142.438"
         style="fill:#f36227;fill-opacity:1;fill-rule:nonzero;stroke:none"
         id="path30" /><path
         d="m 1507.21,110.738 v 142.438 h 91.03 V 233.77 h -69.42 v -41.614 h 59.21 v -19.207 h -59.21 v -42.808 h 69.42 v -19.403 h -91.03"
         style="fill:#f36227;fill-opacity:1;fill-rule:nonzero;stroke:none"
         id="path32" /><path
         d="m 1713.03,125.742 c -10.79,-11.406 -24.2,-16.207 -39.21,-16.207 -14.78,0 -27.59,5.403 -37.41,15.207 -14,14.004 -13.8,29.805 -13.8,57.211 0,27.41 -0.2,43.215 13.8,57.219 9.82,9.797 22.21,15.203 37.41,15.203 30.22,0 47.81,-19.805 51.81,-44.215 h -21.8 c -3.6,15.606 -14,24.813 -30.01,24.813 -8.4,0 -15.99,-3.407 -20.99,-8.805 -7,-7.605 -8.6,-15.605 -8.6,-44.215 0,-28.609 1.6,-36.805 8.6,-44.41 5,-5.398 12.59,-8.602 20.99,-8.602 9.42,0 17.62,3.602 23.22,10.004 5.2,6 7.19,13.203 7.19,22.403 v 8.004 h -30.41 v 18.402 h 52.01 v -21.809 c 0,-18.402 -3.39,-30.203 -12.8,-40.203"
         style="fill:#f36227;fill-opacity:1;fill-rule:nonzero;stroke:none"
         id="path34" /><path
         d="m 1757.61,110.738 v 142.438 h 91.01 V 233.77 h -69.42 v -41.614 h 59.22 v -19.207 h -59.22 v -42.808 h 69.42 v -19.403 h -91.01"
         style="fill:#f36227;fill-opacity:1;fill-rule:nonzero;stroke:none"
         id="path36" /><path
         d="m 1965.63,110.738 -65.81,100.223 V 110.738 h -21.61 v 142.438 h 19.81 l 65.8,-100.031 v 100.031 h 21.62 V 110.738 h -19.81"
         style="fill:#f36227;fill-opacity:1;fill-rule:nonzero;stroke:none"
         id="path38" /><path
         d="m 367.875,292.496 h -77.562 v 69.129 h -48.122 v -69.129 h -77.582 v -42.902 h 77.582 v -69.133 h 48.122 v 69.133 h 77.562 v 42.902"
         style="fill:#63cbcd;fill-opacity:1;fill-rule:nonzero;stroke:none"
         id="path40" /><path
         d="M 66.2695,442.336 H 0 v -40.68 H 66.2695 V 108.949 h 57.4375 v 292.707 h 86.891 v 40.68 h -86.891 c -0.738,42 -1.473,82.687 61.859,82.687 16.192,0 31.653,-2.617 47.125,-5.238 v 41.332 c -25.035,3.953 -52.296,5.262 -67.023,5.262 -78.0508,0 -102.336,-58.414 -99.3985,-124.043"
         style="fill:#f36227;fill-opacity:1;fill-rule:nonzero;stroke:none"
         id="path42" /><path
         d="m 572.859,450.875 c -55.957,0 -96.457,-28.883 -115.597,-72.852 h -1.469 v 64.321 H 403.5 V 0.0117188 h 57.441 V 161.469 c 25.774,-38.078 60.375,-59.071 111.918,-59.071 50.813,0 92.043,25.582 117.809,62.336 22.105,33.469 30.211,75.481 30.211,113.539 0,80.063 -43.445,172.602 -148.02,172.602 m 70.7,-264.488 c -15.477,-23.629 -44.926,-40.68 -76.586,-40.68 -55.953,0 -98.66,47.906 -98.66,104.356 v 74.152 c 10.308,41.348 47.859,81.375 98.66,81.375 77.32,0 96.468,-74.817 96.468,-129.285 0,-29.532 -2.953,-64.313 -19.882,-89.918"
         style="fill:#f36227;fill-opacity:1;fill-rule:nonzero;stroke:none"
         id="path44" /><path
         d="M 902.512,566.371 V 0"
         style="fill:none;stroke:#63cbcd;stroke-width:20;stroke-linecap:butt;stroke-linejoin:miter;stroke-miterlimit:4;stroke-dasharray:none;stroke-opacity:1"
         id="path46" /></g></g></svg>
